<svg xmlns="http://www.w3.org/2000/svg" width="100" height="100" viewBox="0 0 100 100">
  <g id="Group_16571" data-name="Group 16571" transform="translate(-2.5 -2.5)">
    <path id="Path_1" data-name="Path 1" d="M52.5,2.5a50,50,0,1,0,50,50A50,50,0,0,0,52.5,2.5Zm0,93.186A43.187,43.187,0,1,1,95.689,52.5,43.185,43.185,0,0,1,52.5,95.686Z"/>
    <g id="Group_16570" data-name="Group 16570">
      <path id="Path_2" data-name="Path 2" d="M26.259,75.269c-1.709.884-2.3,0-2.3,0s-2.27-3.329-3.33-4.979A1.686,1.686,0,0,1,21.1,67.8l1.759,2.778,1.618-1.024-1.686-2.665,2.245-1.194,1.748,2.763,1.619-1.025-1.673-2.642,2.274-1.211,1.662,2.758,1.641-.988L30.7,62.679l.563-.3-1.334-2.047s-8.267,4.332-10.919,5.923-1.119,4.538-1.119,4.538a70.676,70.676,0,0,1,4.153,6.248c1.5,2.8,4.893,1.09,4.893,1.09l8.546-6.3L34.156,69.79S27.968,74.385,26.259,75.269Z"/>
      <path id="Path_3" data-name="Path 3" d="M85.99,65.722C83.338,64.131,75.071,59.8,75.071,59.8l-1.334,2.047.563.3-1.61,2.67,1.641.989,1.662-2.758,2.274,1.211L76.6,66.9l1.619,1.024,1.748-2.763,2.245,1.2L80.521,69.02l1.618,1.025L83.9,67.267a1.687,1.687,0,0,1,.471,2.491c-1.061,1.648-3.33,4.979-3.33,4.979s-.589.884-2.3,0-7.9-5.481-7.9-5.481L69.518,71.3l8.546,6.3s3.389,1.709,4.893-1.09a70.533,70.533,0,0,1,4.153-6.246S88.643,67.313,85.99,65.722Z"/>
      <path id="Path_4" data-name="Path 4" d="M75.72,54.366s4.6-8.133,0-15.911c-4.18-7.073-14.642-8.225-20.051-1.731h0c-.011.014-.023.031-.035.049-.243.294-.474.608-.7.935-.223.045-.495-.255-.866-1.334-.865-2.515,2.2-6.287,3.693-8.094S58.232,26,58.232,26c-3.692.157-5.794,4.479-5.794,4.479a15.006,15.006,0,0,0-2.22-2.671c-2.987-12.258-15.481-6.68-15.481-6.68.629,11.079,14.087,10.27,12.651,9.194A10.879,10.879,0,0,1,43.7,25.609c8.564,4.637,8.486,9.507,8.25,11.394-.144,1.146-1.1,1.043-1.825.788-5.108-7.658-16.445-6.771-20.84.665-4.6,7.778,0,15.911,0,15.911s1.427,2.443,4.954,7.477c3.769,5.371.645,10.026,4.5,13.82,5.813,5.722,13.769.155,13.769.155s7.955,5.566,13.768-.155c3.854-3.794.729-8.449,4.5-13.82C74.293,56.81,75.72,54.366,75.72,54.366ZM64.9,35.878c.788-.953,2.674-.695,4.212.576s2.148,3.075,1.36,4.029-2.675.695-4.213-.577S64.108,36.83,64.9,35.878Zm6.054,9.637c-.41.485-1.381.34-2.167-.322s-1.093-1.6-.683-2.079,1.378-.339,2.165.324S71.36,45.031,70.951,45.515ZM52.5,63.128c-6.4,0-6.386-.191-15.041-.823-.855-1.783-2.44-3.51-3.421-5.09a16.773,16.773,0,0,1-2.2-5.087s1.294.22,3.343.516v2.573H37.1V52.909c1.075.143,2.27.292,3.538.436v2.934H42.55V53.55c1.151.117,2.34.223,3.539.313v3.354H48V53.99c1.2.068,2.385.114,3.539.133v3.628h1.914V54.124c1.18-.014,2.366-.056,3.539-.116v3.209h1.915V53.892c1.213-.085,2.4-.187,3.539-.3v2.685h1.915V53.391c1.278-.144,2.47-.295,3.538-.44v2.267h1.916V52.677c2.07-.312,3.343-.548,3.343-.548a16.805,16.805,0,0,1-2.2,5.087c-.98,1.58-2.629,3.307-3.486,5.09C67.476,62.305,58.519,63.128,52.5,63.128Z"/>
    </g>
  </g>
</svg>
